# xmcd CD database file
#
# Track frame offsets:
#	172
#	15315
#	30197
#	47510
#	64130
#	86287
#	102490
#	120845
#	141185
#	153325
#	171147
#	193120
#	209540
#	227552
#
# Disc length: 3113 seconds
#
# Revision: 2
# Processed by: cddbd v1.5PL3 Copyright (c) Steve Scherf et al.
# Submitted via: CDex 1.51
#
DISCID=a70c270e
DTITLE=Mike Morgan and The Crawl - Full Moon Over Dallas
DYEAR=1992
DGENRE=Blues
TTITLE0=I Should've Done Better
TTITLE1=I want to be the One
TTITLE2=She's Takin' Me to Heaven
TTITLE3=Full Moon over Dallas
TTITLE4=I Cried a Million Tears
TTITLE5=Gypsy Lover
TTITLE6=Come Back on Home
TTITLE7=Blue Cat Blues
TTITLE8=I'm Just Your Fool
TTITLE9=My Trouble
TTITLE10=Let Me Live Again
TTITLE11=I Gotta Leave
TTITLE12=The Blues have Come My Way
TTITLE13=Wino Talk
EXTD=YEAR: 1992
EXTT0=
EXTT1=
EXTT2=
EXTT3=
EXTT4=
EXTT5=
EXTT6=
EXTT7=
EXTT8=
EXTT9=
EXTT10=
EXTT11=
EXTT12=
EXTT13=
PLAYORDER=
